<svg version="1.2" xmlns="http://www.w3.org/2000/svg" viewBox="0 0 390 500" width="390" height="500">
	<style>
		.s0 { fill: #eac102;stroke: #d18600;stroke-width: .9 } 
	</style>
	<g id="layer1">
		<g id="g2687">
			<path id="path6996" fill-rule="evenodd" class="s0" d="m291.45 240.88v19.46h3.89c-1.77 1.38-2.89 3.43-3.15 5.69-0.53 5.29 0.45 10.59 2.89 15.26 3.03 5.91 11.28 5.48 13.78-0.7 0.99-2.47 1.43-5.15 1.43-7.76 0-0.27 0-0.46 0-0.67-0.19-6.32-3.68-12.03-9.15-14.85h14.71c-0.99 0.96-1.38 2.48-1.05 3.85 1.18 4.47 1.84 9 1.84 13.6 0 2.19-0.2 4.41-0.47 6.68-0.92 7.62-7.18 13.3-14.57 13.3-5.8 0-11.08-3.51-13.45-9.07-2.31 5.49-7.57 9.07-13.37 9.07-7.38 0-13.65-5.69-14.57-13.24-0.33-2.27-0.47-4.48-0.47-6.74 0-4.6 0.6-9.2 1.79-13.6 0.13-0.34 0.14-0.68 0.14-1.02 0-1.1-0.41-2.07-1.2-2.83h14.78c-5.47 2.75-8.98 8.53-9.25 14.85-0.06 2.89 0.47 5.76 1.52 8.43 2.51 6.18 10.75 6.59 13.78 0.62 1.98-3.78 3.04-8.02 3.04-12.35 0-0.96-0.07-1.85-0.2-2.74-0.2-2.33-1.32-4.4-3.1-5.78h3.89v-19.4h-168.89v16.43h5.8l-2.49 5.37 16.97 30.25 4.97 5.78h-16.56l2.69-6.48-3.18-5.77-11.38 10.15-11.5-10.15-3.19 5.77 2.69 6.48h-16.56l5.09-5.78 16.88-30.25-2.4-5.37h5.71v-16.49zm-185.88 38.17l7.28 6.47 7.2-6.47-7.2-12.93z"/>
			<path id="path7047" class="s0" d="m187.63 495.35c-1.08-0.12-2.51-0.41-3.17-0.66-1.84-0.69-13.51 0.92-14.88 2.05-1.59 1.32-8.9 0.65-10.89-1-4.82-3.99-4.55-13.47 0.51-17.75 1.66-1.41 4.18-2.87 5.59-3.26 1.42-0.39 2.58-1.27 2.58-1.97 0-1.8 4.46-6.84 6.85-7.75 1.88-0.71 2.08-1.51 2.55-10.1 1.21-57.26 1.01-114.54 2.07-171.81l0.6-24.94-3.09-1.26c-3.41-1.4-12.2-9.94-13.08-12.7-0.31-0.96-1.25-1.78-2.09-1.81-3.49-0.12-20.98 0.26-26.02 0.56-2.99 0.18-16.06 0.74-29.03 1.25-25.15 0.99-52.39 2.84-51.72 3.52 1.22 1.21-3.67 5.61-7.71 6.95-3.49 1.15-4.53 1.92-4.53 3.37 0 2.58-4.35 8.06-6.2 7.82-0.83-0.12-3.13 0.26-5.11 0.84-7.67 2.23-14.26-4.88-10.96-11.82 0.82-1.72 2.47-3.58 3.66-4.12 1.98-0.9 2.09-1.26 1.27-4.23-0.5-1.78-0.66-4.01-0.36-4.95 0.4-1.24-0.02-1.87-1.54-2.35-1.14-0.35-3.1-1.33-4.34-2.18-1.95-1.31-2.6-1.36-4.54-0.34-3.9 2.05-8.01 1.51-10.96-1.43-2.21-2.21-2.65-3.38-2.65-7.12 0-7.78 4.86-11.39 14.7-10.93 6.15 0.29 9.13-0.66 8.48-2.7-0.27-0.84-0.08-2.95 0.42-4.68 0.86-3 0.74-3.28-2.73-6.16-3.11-2.58-3.63-3.52-3.63-6.59 0-6.72 3.84-9.55 12.24-9 5.73 0.37 8.05 2.04 10.97 7.92 0.95 1.91 2.33 3.08 4.07 3.46 1.45 0.32 3.46 1.63 4.47 2.91 1.32 1.67 3.11 2.53 6.33 3.04 2.48 0.39 26.54 0.74 53.47 0.78 26.93 0.04 49.55 0.29 50.26 0.56 0.79 0.3 2.43-0.94 4.23-3.21 3.2-4.03 8.06-9.07 8.75-9.07 0.24 0 1.87-1.12 3.61-2.49l3.18-2.48-0.51-35.74c-0.66-46.44-1.29-74.57-1.99-88.98l-0.56-11.62-3.45-3.97c-1.89-2.18-3.95-5.37-4.57-7.1-0.67-1.85-1.91-3.32-3.04-3.6-3.67-0.92-7.07-5.56-7.52-10.23-0.37-3.9-0.13-4.64 2.4-7.28 2.36-2.46 3.49-2.94 6.87-2.94 3.44 0 4.35 0.4 6.04 2.68 1.85 2.5 2.36 2.67 7.28 2.49 3.01-0.11 5.3-0.61 5.3-1.16 0-0.52 0.83-1.84 1.84-2.93 1.75-1.87 1.77-2.12 0.37-4.8-1.8-3.48-1.13-8.01 1.54-10.41 2.87-2.58 12.54-5.04 14.79-2.26 4.04 1.67 5.33 11.1 4.08 15.27-1.52 4.34 0.01 6.29 5.24 6.7 3.92 0.31 4.53 0.08 6.91-2.62 2.22-2.52 3.22-2.96 6.67-2.96 5.78 0 8.88 3.22 9.74 10.14 0.79 6.26-0.83 10.02-4.92 11.44-1.8 0.62-3.23 2.02-4.05 3.94-0.71 1.64-2.87 4.64-4.82 6.67l-3.53 3.7-0.69 20.28c-0.38 11.16-0.79 34.74-0.91 52.4-0.11 17.67-0.54 38.92-0.93 47.24l-0.72 15.11 3.06 2.53c4.98 4.1 9.68 9.38 10.83 12.15 0.86 2.06 1.67 2.6 3.92 2.63 15.43 0.2 43.35-0.21 72.12-1.06l34.8-1.02 3.13-3.45c1.72-1.9 4.48-3.9 6.13-4.44 2.09-0.69 3.84-2.34 5.78-5.45 3.95-6.34 8.82-7.13 14.4-2.34 3.54 3.03 3.39 8.36-0.36 13.02-1.84 2.28-2.85 4.74-3.19 7.71-0.44 3.9-0.28 4.44 1.53 5.12 1.11 0.43 2.73 1.47 3.58 2.33 1.17 1.16 1.83 1.29 2.6 0.53 0.56-0.57 3.17-1.03 5.8-1.03 4.03 0 5.12 0.38 7.07 2.48 3.8 4.08 2.54 13.07-2.18 15.59-2.29 1.22-6.66 1.18-9.46-0.09-1.87-0.85-2.78-0.69-5.39 0.91-5.05 3.12-5.69 8.57-1.53 12.92 2.26 2.36 2.72 3.59 2.72 7.23 0 3.13-0.5 4.89-1.75 6.14-2.17 2.16-7.2 3.62-10.4 3.01-2.64-0.5-5.99-4.53-5.99-7.22 0-1.13-1.22-2.26-3.61-3.31-1.99-0.87-4.74-2.93-6.12-4.57-3.15-3.74-4.32-3.95-26.56-4.66-9.73-0.31-19.73-0.69-22.22-0.85-2.5-0.15-17.2-0.58-32.68-0.95l-28.14-0.67-1.05 2.29c-1.57 3.44-6.45 8.66-11.75 12.56l-4.73 3.49 0.31 24.22c0.58 44.53 2.24 107.31 3.21 121.49 0.53 7.71 0.91 15.85 0.85 18.09-0.14 5.33 0.81 26.28 1.47 32.37 0.4 3.69 1.01 5.09 2.68 6.18 1.18 0.78 3.02 3.21 4.09 5.41 1.07 2.2 2.58 4 3.36 4 0.78 0 3.03 1.69 5 3.75 3.23 3.38 3.53 4.1 3.04 7.15-0.77 4.84-4.2 10.77-7.07 12.26-3.28 1.69-8.93 1.6-13.47-0.21-7.73-2.94-12.12 0.46-17.88 3.22-7.94 3.07-9.05-0.91-14.44-3.09z"/>
		</g>
		<g id="g3160">
			<path id="path3164" class="s0" d="m187.63 495.35c-1.08-0.12-2.51-0.41-3.17-0.66-1.84-0.69-13.51 0.92-14.88 2.05-1.59 1.32-8.9 0.65-10.89-1-4.82-3.99-4.55-13.47 0.51-17.75 1.66-1.41 4.18-2.87 5.6-3.26 1.41-0.39 2.57-1.27 2.57-1.97 0-1.8 4.46-6.84 6.86-7.75 1.87-0.71 2.07-1.51 2.54-10.1 1.21-57.26 1.01-114.54 2.07-171.81l0.6-24.94-3.09-1.26c-3.41-1.4-12.2-9.94-13.08-12.7-0.31-0.96-1.25-1.78-2.09-1.81-3.49-0.12-20.98 0.26-26.02 0.56-2.99 0.18-16.06 0.74-29.03 1.25-25.15 0.99-52.39 2.84-51.72 3.52 1.22 1.21-3.67 5.61-7.71 6.95-3.49 1.15-4.53 1.92-4.53 3.37 0 2.58-4.35 8.06-6.2 7.82-0.83-0.12-3.13 0.26-5.11 0.84-7.67 2.23-14.26-4.88-10.96-11.82 0.82-1.72 2.47-3.58 3.66-4.12 1.98-0.9 2.09-1.26 1.27-4.23-0.5-1.78-0.66-4.01-0.36-4.95 0.4-1.24-0.02-1.87-1.54-2.35-1.14-0.35-3.1-1.33-4.34-2.18-1.95-1.31-2.6-1.36-4.54-0.34-3.9 2.05-8.01 1.51-10.96-1.43-2.21-2.21-2.65-3.38-2.65-7.12 0-7.78 4.86-11.39 14.7-10.93 6.15 0.29 9.13-0.66 8.48-2.7-0.27-0.84-0.08-2.95 0.42-4.68 0.86-3 0.74-3.28-2.73-6.16-3.11-2.58-3.63-3.52-3.63-6.59 0-6.72 3.84-9.55 12.24-9 5.73 0.37 8.05 2.04 10.97 7.92 0.95 1.91 2.33 3.08 4.07 3.46 1.45 0.32 3.46 1.63 4.47 2.91 1.32 1.67 3.11 2.53 6.33 3.04 2.48 0.39 26.54 0.74 53.47 0.78 26.94 0.04 49.55 0.29 50.26 0.56 0.79 0.3 2.43-0.94 4.23-3.21 3.2-4.03 8.06-9.07 8.75-9.07 0.24 0 1.87-1.12 3.61-2.49l3.18-2.48-0.51-35.74c-0.66-46.44-1.29-74.57-1.99-88.98l-0.56-11.62-3.44-3.97c-1.9-2.18-3.96-5.37-4.58-7.1-0.67-1.85-1.91-3.32-3.04-3.6-3.66-0.92-7.07-5.56-7.52-10.23-0.37-3.9-0.13-4.64 2.41-7.28 2.35-2.46 3.48-2.94 6.86-2.94 3.44 0 4.35 0.4 6.04 2.68 1.85 2.5 2.36 2.67 7.28 2.49 3.01-0.11 5.3-0.61 5.3-1.16 0-0.52 0.83-1.84 1.84-2.93 1.75-1.87 1.77-2.12 0.38-4.8-1.81-3.48-1.14-8.01 1.53-10.41 2.87-2.58 12.54-5.04 14.79-2.26 4.04 1.67 5.33 11.1 4.08 15.27-1.52 4.34 0.01 6.29 5.24 6.7 3.93 0.31 4.54 0.08 6.91-2.62 2.22-2.52 3.22-2.96 6.67-2.96 5.78 0 8.88 3.22 9.74 10.14 0.79 6.26-0.83 10.02-4.92 11.44-1.8 0.62-3.23 2.02-4.05 3.94-0.71 1.64-2.87 4.64-4.82 6.67l-3.53 3.7-0.69 20.28c-0.38 11.16-0.79 34.74-0.91 52.4-0.11 17.67-0.53 38.92-0.93 47.24l-0.72 15.11 3.07 2.53c4.97 4.1 9.67 9.38 10.82 12.15 0.86 2.06 1.67 2.6 3.92 2.63 15.43 0.2 43.35-0.21 72.12-1.06l34.81-1.02 3.12-3.45c1.72-1.9 4.48-3.9 6.13-4.44 2.09-0.69 3.85-2.34 5.78-5.45 3.95-6.34 8.82-7.13 14.41-2.34 3.53 3.03 3.38 8.36-0.37 13.02-1.84 2.28-2.85 4.74-3.19 7.71-0.44 3.9-0.28 4.44 1.53 5.12 1.12 0.43 2.73 1.47 3.59 2.33 1.16 1.16 1.82 1.29 2.59 0.53 0.56-0.57 3.17-1.03 5.8-1.03 4.03 0 5.13 0.38 7.08 2.48 3.79 4.08 2.54 13.07-2.19 15.59-2.29 1.22-6.66 1.18-9.46-0.09-1.86-0.85-2.78-0.69-5.39 0.91-5.05 3.12-5.69 8.57-1.53 12.92 2.26 2.36 2.73 3.59 2.73 7.23 0 3.13-0.51 4.89-1.76 6.14-2.17 2.16-7.2 3.62-10.39 3.01-2.65-0.5-6-4.53-6-7.22 0-1.13-1.22-2.26-3.61-3.31-1.98-0.87-4.74-2.93-6.12-4.57-3.14-3.74-4.32-3.95-26.56-4.66-9.73-0.31-19.73-0.69-22.22-0.85-2.5-0.15-17.2-0.58-32.68-0.95l-28.14-0.67-1.05 2.29c-1.57 3.44-6.45 8.66-11.75 12.56l-4.73 3.49 0.32 24.22c0.57 44.53 2.23 107.31 3.2 121.49 0.53 7.71 0.91 15.85 0.85 18.09-0.14 5.33 0.81 26.28 1.47 32.37 0.4 3.69 1.01 5.09 2.68 6.18 1.18 0.78 3.03 3.21 4.09 5.41 1.07 2.2 2.58 4 3.36 4 0.78 0 3.04 1.69 5.01 3.75 3.22 3.38 3.52 4.1 3.03 7.15-0.77 4.84-4.2 10.77-7.07 12.26-3.28 1.69-8.93 1.6-13.47-0.21-7.73-2.94-12.12 0.46-17.87 3.22-7.95 3.07-9.06-0.91-14.45-3.09z"/>
		</g>
	</g>
</svg>